<svg xmlns="http://www.w3.org/2000/svg" xmlns:xlink="http://www.w3.org/1999/xlink" contentStyleType="text/css" height="665px" preserveAspectRatio="none" style="width:952px;height:665px;background:#FFFFFF;" version="1.1" viewBox="0 0 952 665" width="952px" zoomAndPan="magnify"><defs/><g><rect fill="none" height="353.0703" style="stroke:#000000;stroke-width:1.5;" width="888.708" x="57.0713" y="214.8281"/><rect fill="none" height="119.3359" style="stroke:#000000;stroke-width:1.5;" width="868.708" x="67.0713" y="355.4922"/><line style="stroke:#181818;stroke-width:0.5;stroke-dasharray:5.0,5.0;" x1="23" x2="23" y1="81.2969" y2="584.8984"/><line style="stroke:#181818;stroke-width:0.5;stroke-dasharray:5.0,5.0;" x1="125.0713" x2="125.0713" y1="81.2969" y2="584.8984"/><line style="stroke:#181818;stroke-width:0.5;stroke-dasharray:5.0,5.0;" x1="266.7065" x2="266.7065" y1="81.2969" y2="584.8984"/><line style="stroke:#181818;stroke-width:0.5;stroke-dasharray:5.0,5.0;" x1="503.3389" x2="503.3389" y1="81.2969" y2="584.8984"/><line style="stroke:#181818;stroke-width:0.5;stroke-dasharray:5.0,5.0;" x1="575.2969" x2="575.2969" y1="81.2969" y2="584.8984"/><line style="stroke:#181818;stroke-width:0.5;stroke-dasharray:5.0,5.0;" x1="794.6465" x2="794.6465" y1="81.2969" y2="584.8984"/><text fill="#000000" font-family="sans-serif" font-size="14" lengthAdjust="spacing" textLength="31.9102" x="5" y="77.9951">User</text><ellipse cx="23.9551" cy="13.5" fill="#E2E2F0" rx="8" ry="8" style="stroke:#181818;stroke-width:0.5;"/><path d="M23.9551,21.5 L23.9551,48.5 M10.9551,29.5 L36.9551,29.5 M23.9551,48.5 L10.9551,63.5 M23.9551,48.5 L36.9551,63.5 " fill="none" style="stroke:#181818;stroke-width:0.5;"/><text fill="#000000" font-family="sans-serif" font-size="14" lengthAdjust="spacing" textLength="31.9102" x="5" y="596.8936">User</text><ellipse cx="23.9551" cy="608.6953" fill="#E2E2F0" rx="8" ry="8" style="stroke:#181818;stroke-width:0.5;"/><path d="M23.9551,616.6953 L23.9551,643.6953 M10.9551,624.6953 L36.9551,624.6953 M23.9551,643.6953 L10.9551,658.6953 M23.9551,643.6953 L36.9551,658.6953 " fill="none" style="stroke:#181818;stroke-width:0.5;"/><rect fill="#E2E2F0" height="30.2969" rx="2.5" ry="2.5" style="stroke:#181818;stroke-width:0.5;" width="97.7676" x="77.0713" y="50"/><text fill="#000000" font-family="sans-serif" font-size="14" lengthAdjust="spacing" textLength="83.7676" x="84.0713" y="69.9951">hiring-index</text><rect fill="#E2E2F0" height="30.2969" rx="2.5" ry="2.5" style="stroke:#181818;stroke-width:0.5;" width="97.7676" x="77.0713" y="583.8984"/><text fill="#000000" font-family="sans-serif" font-size="14" lengthAdjust="spacing" textLength="83.7676" x="84.0713" y="603.8936">hiring-index</text><rect fill="#E2E2F0" height="30.2969" rx="2.5" ry="2.5" style="stroke:#181818;stroke-width:0.5;" width="106.4971" x="213.7065" y="50"/><text fill="#000000" font-family="sans-serif" font-size="14" lengthAdjust="spacing" textLength="92.4971" x="220.7065" y="69.9951">Elasticsearch</text><rect fill="#E2E2F0" height="30.2969" rx="2.5" ry="2.5" style="stroke:#181818;stroke-width:0.5;" width="106.4971" x="213.7065" y="583.8984"/><text fill="#000000" font-family="sans-serif" font-size="14" lengthAdjust="spacing" textLength="92.4971" x="220.7065" y="603.8936">Elasticsearch</text><rect fill="#E2E2F0" height="30.2969" rx="2.5" ry="2.5" style="stroke:#181818;stroke-width:0.5;" width="66.958" x="470.3389" y="50"/><text fill="#000000" font-family="sans-serif" font-size="14" lengthAdjust="spacing" textLength="52.958" x="477.3389" y="69.9951">squirrel</text><rect fill="#E2E2F0" height="30.2969" rx="2.5" ry="2.5" style="stroke:#181818;stroke-width:0.5;" width="66.958" x="470.3389" y="583.8984"/><text fill="#000000" font-family="sans-serif" font-size="14" lengthAdjust="spacing" textLength="52.958" x="477.3389" y="603.8936">squirrel</text><rect fill="#E2E2F0" height="30.2969" rx="2.5" ry="2.5" style="stroke:#181818;stroke-width:0.5;" width="57.832" x="547.2969" y="50"/><text fill="#000000" font-family="sans-serif" font-size="14" lengthAdjust="spacing" textLength="43.832" x="554.2969" y="69.9951">mafka</text><rect fill="#E2E2F0" height="30.2969" rx="2.5" ry="2.5" style="stroke:#181818;stroke-width:0.5;" width="57.832" x="547.2969" y="583.8984"/><text fill="#000000" font-family="sans-serif" font-size="14" lengthAdjust="spacing" textLength="43.832" x="554.2969" y="603.8936">mafka</text><rect fill="#E2E2F0" height="30.2969" rx="2.5" ry="2.5" style="stroke:#181818;stroke-width:0.5;" width="261.1328" x="664.6465" y="50"/><text fill="#000000" font-family="sans-serif" font-size="14" lengthAdjust="spacing" textLength="247.1328" x="671.6465" y="69.9951">hiring-index-data-validation-engine</text><rect fill="#E2E2F0" height="30.2969" rx="2.5" ry="2.5" style="stroke:#181818;stroke-width:0.5;" width="261.1328" x="664.6465" y="583.8984"/><text fill="#000000" font-family="sans-serif" font-size="14" lengthAdjust="spacing" textLength="247.1328" x="671.6465" y="603.8936">hiring-index-data-validation-engine</text><polygon fill="#181818" points="113.9551,108.4297,123.9551,112.4297,113.9551,116.4297,117.9551,112.4297" style="stroke:#181818;stroke-width:1.0;"/><line style="stroke:#181818;stroke-width:1.0;" x1="23.9551" x2="119.9551" y1="112.4297" y2="112.4297"/><text fill="#000000" font-family="sans-serif" font-size="13" lengthAdjust="spacing" textLength="78" x="30.9551" y="107.3638">&#35302;&#21457;&#25968;&#25454;&#21464;&#26356;</text><polygon fill="#181818" points="254.9551,137.5625,264.9551,141.5625,254.9551,145.5625,258.9551,141.5625" style="stroke:#181818;stroke-width:1.0;"/><line style="stroke:#181818;stroke-width:1.0;" x1="125.9551" x2="260.9551" y1="141.5625" y2="141.5625"/><text fill="#000000" font-family="sans-serif" font-size="13" lengthAdjust="spacing" textLength="105.771" x="132.9551" y="136.4966">&#25552;&#20132;&#21464;&#26356;&#25968;&#25454;&#21040;es</text><polygon fill="#181818" points="136.9551,166.6953,126.9551,170.6953,136.9551,174.6953,132.9551,170.6953" style="stroke:#181818;stroke-width:1.0;"/><line style="stroke:#181818;stroke-width:1.0;" x1="130.9551" x2="265.9551" y1="170.6953" y2="170.6953"/><text fill="#000000" font-family="sans-serif" font-size="13" lengthAdjust="spacing" textLength="52" x="142.9551" y="165.6294">&#23436;&#25104;&#20889;&#20837;</text><polygon fill="#181818" points="491.8179,195.8281,501.8179,199.8281,491.8179,203.8281,495.8179,199.8281" style="stroke:#181818;stroke-width:1.0;"/><line style="stroke:#181818;stroke-width:1.0;" x1="125.9551" x2="497.8179" y1="199.8281" y2="199.8281"/><text fill="#000000" font-family="sans-serif" font-size="13" lengthAdjust="spacing" textLength="353.8628" x="132.9551" y="194.7622">&#23581;&#35797;&#33719;&#21462;&#25968;&#25454;&#26657;&#39564;&#38145; (businessId + indexAlias, 2s expiry)</text><path d="M57.0713,214.8281 L121.5142,214.8281 L121.5142,221.9609 L111.5142,231.9609 L57.0713,231.9609 L57.0713,214.8281 " fill="#EEEEEE" style="stroke:#000000;stroke-width:1.5;"/><rect fill="none" height="353.0703" style="stroke:#000000;stroke-width:1.5;" width="888.708" x="57.0713" y="214.8281"/><text fill="#000000" font-family="sans-serif" font-size="13" font-weight="bold" lengthAdjust="spacing" textLength="19.4429" x="72.0713" y="227.895">alt</text><text fill="#000000" font-family="sans-serif" font-size="11" font-weight="bold" lengthAdjust="spacing" textLength="96.4648" x="136.5142" y="227.0386">[Lock acquired]</text><polygon fill="#008000" points="136.9551,249.0938,126.9551,253.0938,136.9551,257.0938,132.9551,253.0938" style="stroke:#008000;stroke-width:1.0;"/><line style="stroke:#008000;stroke-width:1.0;" x1="130.9551" x2="502.8179" y1="253.0938" y2="253.0938"/><text fill="#000000" font-family="sans-serif" font-size="13" lengthAdjust="spacing" textLength="130" x="142.9551" y="248.0278">&#25104;&#21151;&#33719;&#21462;&#21040;&#25968;&#25454;&#26657;&#39564;&#38145;</text><polygon fill="#181818" points="564.2129,278.2266,574.2129,282.2266,564.2129,286.2266,568.2129,282.2266" style="stroke:#181818;stroke-width:1.0;"/><line style="stroke:#181818;stroke-width:1.0;stroke-dasharray:2.0,2.0;" x1="125.9551" x2="570.2129" y1="282.2266" y2="282.2266"/><text fill="#000000" font-family="sans-serif" font-size="13" lengthAdjust="spacing" textLength="103.1875" x="132.9551" y="277.1606">&#21457;&#36865;&#24310;&#26102;&#28040;&#24687;(2s)</text><polygon fill="#0000FF" points="783.2129,307.3594,793.2129,311.3594,783.2129,315.3594,787.2129,311.3594" style="stroke:#0000FF;stroke-width:1.0;"/><line style="stroke:#0000FF;stroke-width:1.0;stroke-dasharray:2.0,2.0;" x1="576.2129" x2="789.2129" y1="311.3594" y2="311.3594"/><text fill="#000000" font-family="sans-serif" font-size="13" lengthAdjust="spacing" textLength="195" x="583.2129" y="306.2935">&#24310;&#26102;&#28040;&#24687;&#21040;&#26399;&#21518;&#39537;&#21160;&#25968;&#25454;&#26657;&#39564;&#24341;&#25806;</text><polygon fill="#181818" points="136.9551,336.4922,126.9551,340.4922,136.9551,344.4922,132.9551,340.4922" style="stroke:#181818;stroke-width:1.0;"/><line style="stroke:#181818;stroke-width:1.0;" x1="130.9551" x2="794.2129" y1="340.4922" y2="340.4922"/><text fill="#000000" font-family="sans-serif" font-size="13" lengthAdjust="spacing" textLength="78" x="142.9551" y="335.4263">&#25191;&#34892;&#25968;&#25454;&#26657;&#39564;</text><path d="M67.0713,355.4922 L131.5142,355.4922 L131.5142,362.625 L121.5142,372.625 L67.0713,372.625 L67.0713,355.4922 " fill="#EEEEEE" style="stroke:#000000;stroke-width:1.5;"/><rect fill="none" height="119.3359" style="stroke:#000000;stroke-width:1.5;" width="868.708" x="67.0713" y="355.4922"/><text fill="#000000" font-family="sans-serif" font-size="13" font-weight="bold" lengthAdjust="spacing" textLength="19.4429" x="82.0713" y="368.5591">alt</text><text fill="#000000" font-family="sans-serif" font-size="11" font-weight="bold" lengthAdjust="spacing" textLength="103.3721" x="146.5142" y="367.7026">[Validation fails]</text><polygon fill="#FF0000" points="136.9551,389.7578,126.9551,393.7578,136.9551,397.7578,132.9551,393.7578" style="stroke:#FF0000;stroke-width:1.0;"/><line style="stroke:#FF0000;stroke-width:1.0;" x1="130.9551" x2="794.2129" y1="393.7578" y2="393.7578"/><text fill="#000000" font-family="sans-serif" font-size="13" lengthAdjust="spacing" textLength="91" x="142.9551" y="388.6919">&#26657;&#39564;&#25968;&#25454;&#19981;&#19968;&#33268;</text><polygon fill="#181818" points="254.9551,418.8906,264.9551,422.8906,254.9551,426.8906,258.9551,422.8906" style="stroke:#181818;stroke-width:1.0;"/><line style="stroke:#181818;stroke-width:1.0;" x1="125.9551" x2="260.9551" y1="422.8906" y2="422.8906"/><text fill="#000000" font-family="sans-serif" font-size="13" lengthAdjust="spacing" textLength="117" x="132.9551" y="417.8247">&#25191;&#34892;&#25968;&#25454;&#34917;&#20607;&#24182;&#25171;&#28857;</text><line style="stroke:#000000;stroke-width:1.0;stroke-dasharray:2.0,2.0;" x1="67.0713" x2="935.7793" y1="431.8906" y2="431.8906"/><text fill="#000000" font-family="sans-serif" font-size="11" font-weight="bold" lengthAdjust="spacing" textLength="133.8369" x="72.0713" y="442.1011">[Validation succeeds]</text><polygon fill="#008000" points="136.9551,462.8281,126.9551,466.8281,136.9551,470.8281,132.9551,466.8281" style="stroke:#008000;stroke-width:1.0;"/><line style="stroke:#008000;stroke-width:1.0;" x1="130.9551" x2="794.2129" y1="466.8281" y2="466.8281"/><text fill="#000000" font-family="sans-serif" font-size="13" lengthAdjust="spacing" textLength="78" x="142.9551" y="461.7622">&#26657;&#39564;&#25968;&#25454;&#25104;&#21151;</text><line style="stroke:#000000;stroke-width:1.0;stroke-dasharray:2.0,2.0;" x1="57.0713" x2="945.7793" y1="482.8281" y2="482.8281"/><text fill="#000000" font-family="sans-serif" font-size="11" font-weight="bold" lengthAdjust="spacing" textLength="120.9409" x="62.0713" y="493.0386">[Lock not acquired]</text><polygon fill="#FF0000" points="136.9551,513.7656,126.9551,517.7656,136.9551,521.7656,132.9551,517.7656" style="stroke:#FF0000;stroke-width:1.0;"/><line style="stroke:#FF0000;stroke-width:1.0;" x1="130.9551" x2="502.8179" y1="517.7656" y2="517.7656"/><text fill="#000000" font-family="sans-serif" font-size="13" lengthAdjust="spacing" textLength="65" x="142.9551" y="512.6997">&#26410;&#33719;&#21462;&#21040;&#38145;</text><line style="stroke:#181818;stroke-width:1.0;" x1="125.9551" x2="167.9551" y1="546.8984" y2="546.8984"/><line style="stroke:#181818;stroke-width:1.0;" x1="167.9551" x2="167.9551" y1="546.8984" y2="559.8984"/><line style="stroke:#181818;stroke-width:1.0;" x1="126.9551" x2="167.9551" y1="559.8984" y2="559.8984"/><polygon fill="#181818" points="136.9551,555.8984,126.9551,559.8984,136.9551,563.8984,132.9551,559.8984" style="stroke:#181818;stroke-width:1.0;"/><text fill="#000000" font-family="sans-serif" font-size="13" lengthAdjust="spacing" textLength="78" x="132.9551" y="541.8325">&#36339;&#36807;&#27492;&#27425;&#26657;&#39564;</text><!--SRC=[TL9FJnD15B_FfvZ01Q9xuSZ1XCGzcDX3qyY5S1XsXp9XdQupMuCtQg8KKhebM8M8mIOWIXHg90NKX2_J6RVVmfctPRFhdptjllVxzzvRuaKrWHz9Ab18HCGy5X8UuOaL9XYlEepxT6q24uddmh28S0CYpPUaH7Wh074hHOHyKcT2q02Q3slUQh7zc2ol4kYLolytTtmI4USf2PXvOJNkK5vbd0Bl_hoBaCsEdNisu2nEJZweU4Tt-thxJCLx-kq5CdNRTYkpMCUTuVUZj3x6DFjK8hUI2QYpbcvsrCjzzU8OtN9jTjFglqlEkqdxKiMlKxP-tnkTjaQl6dXggIvDAYaV-FWEXk1p0IFoBfwHcAw5J3oRHYI8G0eJpsw6-WYR1ohEmcHLKCeNnp5iXgt3rCja_CCEU93DX2kLJRHuPxJUK3y6-ir03vgwSJur8wS1LYfRyQMWJXSDs6pCe7CuAtvmg3hjqQUlQkjZtaZzxEhTDeWOMhOXlNcIz5fv843iSFFPbV0oOO64HiPVc3GZPmC2CrKPNcqFhzQJZOiCdxzPpYxf7Ql6ZReUwCtTNy-l0Ku3IVF6ikvvbFf_UHVNctDFLvrgSH-17jo4rw9_Noe_ni5fTgJ2OMx_nyjloSs6_dAaF_V6op8clm40]--></g></svg>