<svg xmlns="http://www.w3.org/2000/svg" xmlns:xlink="http://www.w3.org/1999/xlink" contentStyleType="text/css" height="502px" preserveAspectRatio="none" style="width:386px;height:502px;background:#FFFFFF;" version="1.1" viewBox="0 0 386 502" width="386px" zoomAndPan="magnify"><defs/><g><line style="stroke:#181818;stroke-width:0.5;stroke-dasharray:5.0,5.0;" x1="23" x2="23" y1="81.2969" y2="421.7578"/><line style="stroke:#181818;stroke-width:0.5;stroke-dasharray:5.0,5.0;" x1="151.7065" x2="151.7065" y1="81.2969" y2="421.7578"/><line style="stroke:#181818;stroke-width:0.5;stroke-dasharray:5.0,5.0;" x1="241.2036" x2="241.2036" y1="81.2969" y2="421.7578"/><line style="stroke:#181818;stroke-width:0.5;stroke-dasharray:5.0,5.0;" x1="331.0713" x2="331.0713" y1="81.2969" y2="421.7578"/><text fill="#000000" font-family="sans-serif" font-size="14" lengthAdjust="spacing" textLength="31.9102" x="5" y="77.9951">User</text><ellipse cx="23.9551" cy="13.5" fill="#E2E2F0" rx="8" ry="8" style="stroke:#181818;stroke-width:0.5;"/><path d="M23.9551,21.5 L23.9551,48.5 M10.9551,29.5 L36.9551,29.5 M23.9551,48.5 L10.9551,63.5 M23.9551,48.5 L36.9551,63.5 " fill="none" style="stroke:#181818;stroke-width:0.5;"/><text fill="#000000" font-family="sans-serif" font-size="14" lengthAdjust="spacing" textLength="31.9102" x="5" y="433.7529">User</text><ellipse cx="23.9551" cy="445.5547" fill="#E2E2F0" rx="8" ry="8" style="stroke:#181818;stroke-width:0.5;"/><path d="M23.9551,453.5547 L23.9551,480.5547 M10.9551,461.5547 L36.9551,461.5547 M23.9551,480.5547 L10.9551,495.5547 M23.9551,480.5547 L36.9551,495.5547 " fill="none" style="stroke:#181818;stroke-width:0.5;"/><rect fill="#E2E2F0" height="30.2969" rx="2.5" ry="2.5" style="stroke:#181818;stroke-width:0.5;" width="106.4971" x="98.7065" y="50"/><text fill="#000000" font-family="sans-serif" font-size="14" lengthAdjust="spacing" textLength="92.4971" x="105.7065" y="69.9951">Elasticsearch</text><rect fill="#E2E2F0" height="30.2969" rx="2.5" ry="2.5" style="stroke:#181818;stroke-width:0.5;" width="106.4971" x="98.7065" y="420.7578"/><text fill="#000000" font-family="sans-serif" font-size="14" lengthAdjust="spacing" textLength="92.4971" x="105.7065" y="440.7529">Elasticsearch</text><rect fill="#E2E2F0" height="30.2969" rx="2.5" ry="2.5" style="stroke:#181818;stroke-width:0.5;" width="53.375" x="215.2036" y="50"/><text fill="#000000" font-family="sans-serif" font-size="14" lengthAdjust="spacing" textLength="39.375" x="222.2036" y="69.9951">Kafka</text><rect fill="#E2E2F0" height="30.2969" rx="2.5" ry="2.5" style="stroke:#181818;stroke-width:0.5;" width="53.375" x="215.2036" y="420.7578"/><text fill="#000000" font-family="sans-serif" font-size="14" lengthAdjust="spacing" textLength="39.375" x="222.2036" y="440.7529">Kafka</text><rect fill="#E2E2F0" height="30.2969" rx="2.5" ry="2.5" style="stroke:#181818;stroke-width:0.5;" width="97.7676" x="283.0713" y="50"/><text fill="#000000" font-family="sans-serif" font-size="14" lengthAdjust="spacing" textLength="83.7676" x="290.0713" y="69.9951">hiring-index</text><rect fill="#E2E2F0" height="30.2969" rx="2.5" ry="2.5" style="stroke:#181818;stroke-width:0.5;" width="97.7676" x="283.0713" y="420.7578"/><text fill="#000000" font-family="sans-serif" font-size="14" lengthAdjust="spacing" textLength="83.7676" x="290.0713" y="440.7529">hiring-index</text><polygon fill="#181818" points="139.9551,108.4297,149.9551,112.4297,139.9551,116.4297,143.9551,112.4297" style="stroke:#181818;stroke-width:1.0;"/><line style="stroke:#181818;stroke-width:1.0;" x1="23.9551" x2="145.9551" y1="112.4297" y2="112.4297"/><text fill="#000000" font-family="sans-serif" font-size="13" lengthAdjust="spacing" textLength="91" x="30.9551" y="107.3638">&#21019;&#24314;&#26032;&#30340;&#31354;&#32034;&#24341;</text><polygon fill="#181818" points="34.9551,137.5625,24.9551,141.5625,34.9551,145.5625,30.9551,141.5625" style="stroke:#181818;stroke-width:1.0;"/><line style="stroke:#181818;stroke-width:1.0;stroke-dasharray:2.0,2.0;" x1="28.9551" x2="150.9551" y1="141.5625" y2="141.5625"/><text fill="#000000" font-family="sans-serif" font-size="13" lengthAdjust="spacing" textLength="78" x="40.9551" y="136.4966">&#32034;&#24341;&#21019;&#24314;&#25104;&#21151;</text><polygon fill="#181818" points="229.8911,166.6953,239.8911,170.6953,229.8911,174.6953,233.8911,170.6953" style="stroke:#181818;stroke-width:1.0;"/><line style="stroke:#181818;stroke-width:1.0;" x1="23.9551" x2="235.8911" y1="170.6953" y2="170.6953"/><text fill="#000000" font-family="sans-serif" font-size="13" lengthAdjust="spacing" textLength="167.2163" x="30.9551" y="165.6294">&#37197;&#32622; new &#30417;&#21548; old &#32034;&#24341;&#21464;&#26356;</text><polygon fill="#181818" points="34.9551,195.8281,24.9551,199.8281,34.9551,203.8281,30.9551,199.8281" style="stroke:#181818;stroke-width:1.0;"/><line style="stroke:#181818;stroke-width:1.0;stroke-dasharray:2.0,2.0;" x1="28.9551" x2="240.8911" y1="199.8281" y2="199.8281"/><text fill="#000000" font-family="sans-serif" font-size="13" lengthAdjust="spacing" textLength="78" x="40.9551" y="194.7622">&#30417;&#21548;&#37197;&#32622;&#25104;&#21151;</text><polygon fill="#181818" points="162.9551,224.9609,152.9551,228.9609,162.9551,232.9609,158.9551,228.9609" style="stroke:#181818;stroke-width:1.0;"/><line style="stroke:#181818;stroke-width:1.0;stroke-dasharray:2.0,2.0;" x1="156.9551" x2="330.9551" y1="228.9609" y2="228.9609"/><text fill="#000000" font-family="sans-serif" font-size="13" lengthAdjust="spacing" textLength="156" x="168.9551" y="223.895">&#21521;&#26032;&#32034;&#24341;&#36827;&#34892;&#22686;&#37327;&#25968;&#25454;&#20889;&#20837;</text><polygon fill="#181818" points="162.9551,254.0938,152.9551,258.0938,162.9551,262.0938,158.9551,258.0938" style="stroke:#181818;stroke-width:1.0;"/><line style="stroke:#181818;stroke-width:1.0;" x1="156.9551" x2="330.9551" y1="258.0938" y2="258.0938"/><text fill="#000000" font-family="sans-serif" font-size="13" lengthAdjust="spacing" textLength="156" x="168.9551" y="253.0278">&#21521;&#26032;&#32034;&#24341;&#36827;&#34892;&#20840;&#37327;&#25968;&#25454;&#20889;&#20837;</text><polygon fill="#181818" points="319.9551,283.2266,329.9551,287.2266,319.9551,291.2266,323.9551,287.2266" style="stroke:#181818;stroke-width:1.0;"/><line style="stroke:#181818;stroke-width:1.0;stroke-dasharray:2.0,2.0;" x1="151.9551" x2="325.9551" y1="287.2266" y2="287.2266"/><text fill="#000000" font-family="sans-serif" font-size="13" lengthAdjust="spacing" textLength="104" x="158.9551" y="282.1606">&#20840;&#37327;&#25968;&#25454;&#20889;&#20837;&#23436;&#25104;</text><polygon fill="#181818" points="139.9551,312.3594,149.9551,316.3594,139.9551,320.3594,143.9551,316.3594" style="stroke:#181818;stroke-width:1.0;"/><line style="stroke:#181818;stroke-width:1.0;" x1="23.9551" x2="145.9551" y1="316.3594" y2="316.3594"/><text fill="#000000" font-family="sans-serif" font-size="13" lengthAdjust="spacing" textLength="104" x="30.9551" y="311.2935">&#20999;&#25442;&#21035;&#21517;&#21040;&#26032;&#32034;&#24341;</text><polygon fill="#181818" points="34.9551,341.4922,24.9551,345.4922,34.9551,349.4922,30.9551,345.4922" style="stroke:#181818;stroke-width:1.0;"/><line style="stroke:#181818;stroke-width:1.0;stroke-dasharray:2.0,2.0;" x1="28.9551" x2="150.9551" y1="345.4922" y2="345.4922"/><text fill="#000000" font-family="sans-serif" font-size="13" lengthAdjust="spacing" textLength="78" x="40.9551" y="340.4263">&#21035;&#21517;&#20999;&#25442;&#25104;&#21151;</text><polygon fill="#181818" points="229.8911,370.625,239.8911,374.625,229.8911,378.625,233.8911,374.625" style="stroke:#181818;stroke-width:1.0;"/><line style="stroke:#181818;stroke-width:1.0;" x1="23.9551" x2="235.8911" y1="374.625" y2="374.625"/><text fill="#000000" font-family="sans-serif" font-size="13" lengthAdjust="spacing" textLength="117" x="30.9551" y="369.5591">&#26242;&#20572;&#30417;&#21548;&#32769;&#32034;&#24341;&#21464;&#26356;</text><polygon fill="#181818" points="34.9551,399.7578,24.9551,403.7578,34.9551,407.7578,30.9551,403.7578" style="stroke:#181818;stroke-width:1.0;"/><line style="stroke:#181818;stroke-width:1.0;stroke-dasharray:2.0,2.0;" x1="28.9551" x2="240.8911" y1="403.7578" y2="403.7578"/><text fill="#000000" font-family="sans-serif" font-size="13" lengthAdjust="spacing" textLength="78" x="40.9551" y="398.6919">&#30417;&#21548;&#26242;&#20572;&#25104;&#21151;</text><!--SRC=[ZP11IiD068NtSugVxdE1BDov49VY0OPqj8CbBPEWBgqO6wIXwQAYZIW614K9MNHL5K_pJz9Rc6HQJQA1xYOpx_juUTImUmBsBIP8dmgR6xnFJHkskzJAFYn6XT6flEpIWoDQkMbrkE3ceSRDDZjj0RLW9p_jCN7C3KP8BWTjg-hK0Tq0tnVoEavc5ydB8fc7-34bbH1e6PRZEgZd5UFwUFNmAougwR1qlEGp0fETG19Cq7-3NhUz1iStCfYJ8bcs5Za5hgpbxaMoNjkVv9qBQ_eLf8yZ3E-Nmx6SnjAByF8MdQUQP1E7yrnpm3zJbBMPvG-3qIZxY-R1Xz8BqNr5tqCt_cdGkFawccCDcylPEGxkr8pfsM23iHMXTDy0]--></g></svg>